<svg xmlns="http://www.w3.org/2000/svg" viewBox="0 0 294.38 287.3"><defs><style>.cls-1{fill:none;stroke:#000;stroke-width:1.07px;}.cls-2{fill:red;}</style></defs><title>g876</title><g id="Layer_2" data-name="Layer 2"><g id="Layer_1-2" data-name="Layer 1"><g id="g876"><path id="path3750-6" class="cls-1" d="M19.68,112,8.14,105,.56,117.6l1.27,7,13.52,1.27,2.52-2.17,58.42,23.44L74,151l7.93,5.95-16,22.18.37,3.42,1.08,1.81,1.08,1.8L103.7,211l4.87-5.77,10.09,7.21-1.26,2.89.36,2.88.72,2.53,23.44,17.13,2.89.18,2.88-1.81,1.45-2h.9L224,286.55l39.85-57,29.93-88-52.11-37.5,1.8-3.25-.18-4.5-2-2.35L218,78.48h-2l-1.26.18-2,1.26L211.7,81l-.18,1.44-53-37L146.79,64.23l-7.57-3.78L138,59.72l-1.09.19-1.26,1.62L95.4,18.25l.91-2.34V12.85L91.08.59,81.34,1.85,82.24,4l-1.08.54L74.49,15.73,83,21.32l2.89,2.34,2.7-.72L90.9,22l40.39,44.9-2.53,4.5,8.84,6.86-19.48,27.22-4.87-3.24h-2.52l-1.08,1.26-5.23,8.11.36,2,1.8,1.62,3.43,2L90,145l-8.79-6.4-3.29,4.28L21.48,119.41l.86-2.62-.05-1.31-.54-1.17-.77-.9Z"/><g id="a7889"><path id="path4234-5" class="cls-2" d="M187.12,259.22c-19.79-14-36.6-25.47-37.36-25.47a4.19,4.19,0,0,0-2.64,1.53,4.54,4.54,0,0,1-3,1.53c-.95,0-7-3.83-13.39-8.51-11.62-8.47-11.67-8.53-11.67-12.71,0-3.91-.37-4.45-5.42-8l-5.42-3.8-2.33,2.92-2.33,2.91L86.73,197.74c-9.27-6.54-17.3-12.47-17.85-13.18-2.67-3.45-2.12-4.93,6-16.21l8.28-11.44-3.94-3.31c-3.42-2.87-3.76-3.53-2.57-4.95.75-.91,1.18-1.79,1-2S63.82,141,47.41,134.46c-24.63-9.81-30.17-11.69-31.71-10.73-1.2.75-3.86.91-7.53.45-5.26-.65-5.71-.92-6.1-3.62-.31-2.07.59-4.57,3.06-8.55l3.5-5.64L12.85,109c6.7,4.15,8.84,6.48,8.22,8.94-.5,2,1.83,3.17,28.33,14.2,28,11.65,28.91,12,30.4,10s1.62-1.92,6,1.06c2.44,1.67,4.8,2.64,5.24,2.16s5.22-7,10.6-14.6l9.8-13.73-3-1.93a11.56,11.56,0,0,1-3-2.36,94.16,94.16,0,0,1,5.78-9.52c.23-.26,2,.39,4,1.44s3.7,1.71,3.9,1.48c.68-.77,18.59-25.9,19.29-27.06.41-.67-1.24-2.67-3.92-4.76s-4.16-3.89-3.55-4.26a3.14,3.14,0,0,0,1.07-2.42c0-1-9.2-12-20.44-24.43C92.92,22.76,90.73,20.66,88.86,21.66c-1.72.92-3,.48-7.55-2.67l-5.48-3.78,3.51-5.49c1.94-3,3.52-6,3.52-6.5s1.78-1,4-1c3.85,0,4,.16,6.24,5.61,1.28,3.15,2,6.77,1.77,8.25-.44,2.28,2.21,5.54,19.88,24.51,15.83,17,20.79,21.75,22.25,21.28,1-.33,3.74.36,6,1.52l4.14,2.11L152,57.87c2.66-4.19,5.3-8.36,5.86-9.26.87-1.38,5.06,1.18,27.46,16.78,25.27,17.6,26.49,18.32,27.85,16.38a4.7,4.7,0,0,1,3.19-2c1,0,7,3.56,13.45,7.91l11.69,7.91-.16,4.73-.15,4.73,25.38,18.21c14,10,25.39,18.73,25.4,19.35s-6.53,20.36-14.53,43.86l-14.55,42.72-19.37,27.76c-10.65,15.26-19.59,27.76-19.87,27.76s-16.7-11.45-36.49-25.46Z"/></g></g></g></g></svg>