<?xml version='1.0' encoding='UTF-8'?>
<!-- Created with Inkscape (http://www.inkscape.org/) and export_objects.py -->
<svg xmlns:cc="http://creativecommons.org/ns#" xmlns:dc="http://purl.org/dc/elements/1.1/" xmlns:inkscape="http://www.inkscape.org/namespaces/inkscape" xmlns:rdf="http://www.w3.org/1999/02/22-rdf-syntax-ns#" xmlns:sodipodi="http://sodipodi.sourceforge.net/DTD/sodipodi-0.dtd" xmlns:xlink="http://www.w3.org/1999/xlink" xmlns="http://www.w3.org/2000/svg" version="1.1" id="Layer_1" x="0px" y="0px" viewBox="0 0 294.37585 287.29812" style="enable-background:new 0 0 1920 1080;" xml:space="preserve" sodipodi:docname="SVG-001.svg" inkscape:version="0.92.3 (2405546, 2018-03-11)" width="294.37585px" height="287.29812px"><sodipodi:namedview pagecolor="#ffffff" bordercolor="#666666" borderopacity="1" objecttolerance="10" gridtolerance="10" guidetolerance="10" inkscape:pageopacity="0" inkscape:pageshadow="2" inkscape:window-width="2400" inkscape:window-height="1271" id="namedview7298" showgrid="false" inkscape:zoom="0.99878833" inkscape:cx="1067.4179" inkscape:cy="522.25773" inkscape:window-x="2391" inkscape:window-y="-9" inkscape:window-maximized="1" inkscape:current-layer="layer15"/>
<metadata id="metadata7302"><rdf:RDF><cc:Work rdf:about=""><dc:format>image/svg+xml</dc:format><dc:type rdf:resource="http://purl.org/dc/dcmitype/StillImage"/><dc:title/></cc:Work></rdf:RDF></metadata><g inkscape:groupmode="layer" inkscape:label="SVG-" transform="matrix(1.000000,0.000000,0.000000,1.000000,-891.759950,-365.978470)"><a xlink:href="pages/red.html" cursor="pointer"><g id="g876" inkscape:label="001"><path inkscape:connector-curvature="0" id="path3750-6" d="m 911.43668,477.99159 -11.53949,-7.03187 -7.57278,12.62129 1.26209,7.03186 13.52284,1.26214 2.5243,-2.16366 58.41849,23.43955 -2.34398,3.78639 7.93342,5.95003 -16.04704,22.17742 0.36063,3.42577 1.08178,1.80305 1.08178,1.80304 35.33965,24.88197 4.86823,-5.76973 10.097,7.21216 -1.2621,2.88486 0.3607,2.88488 0.7211,2.52425 23.4396,17.1289 2.8848,0.1803 2.885,-1.80304 1.4424,-1.98335 h 0.9014 l 73.9247,52.28821 39.8473,-56.97611 29.9305,-87.98843 -52.1079,-37.50327 1.803,-3.24547 -0.1803,-4.50761 -1.9834,-2.34395 -23.2592,-15.50616 h -1.9833 l -1.2622,0.1803 -1.9834,1.26214 -1.0817,1.08182 -0.1804,1.44244 -53.0093,-36.96236 -11.7198,18.75163 -7.5728,-3.78638 -1.2621,-0.72121 -1.0819,0.1803 -1.2621,1.62274 -40.20779,-43.27301 0.90146,-2.34395 v -3.06517 l -5.2288,-12.26068 -9.73645,1.26213 0.90157,2.16365 -1.08188,0.54091 -6.67121,11.17886 8.47425,5.58943 2.88492,2.34395 2.70451,-0.72121 2.34398,-0.90152 40.38814,44.89573 -2.5242,4.5076 8.8349,6.85156 -19.4728,27.22593 -4.8683,-3.24548 h -2.5242 l -1.0819,1.26213 -5.22877,8.11369 0.36063,1.98335 1.80304,1.62273 3.4258,1.98334 -20.01381,27.76685 -8.78985,-6.4008 -3.29058,4.28222 -56.43514,-23.48461 0.85644,-2.61441 -0.0451,-1.30721 -0.54095,-1.17198 -0.76628,-0.90152 z" style="display:inline;fill:none;stroke:#000000;stroke-width:1.07458043px;stroke-linecap:butt;stroke-linejoin:miter;stroke-opacity:1"/><a  transform="matrix(1.0745805,0,0,1.0745805,-86.197142,-2.6981176)" id="a7889"><path style="display:inline;stroke-width:0.94916511" d="m 1084.2167,584.31842 c -18.4158,-13.03685 -34.0604,-23.70336 -34.7656,-23.70336 -0.7052,0 -1.8139,0.64069 -2.4638,1.42375 -0.6499,0.78306 -1.9006,1.42374 -2.7794,1.42374 -0.8788,0 -6.4859,-3.56281 -12.4602,-7.91736 -10.8103,-7.87934 -10.8624,-7.93614 -10.8624,-11.82613 0,-3.64471 -0.3407,-4.14774 -5.0437,-7.44622 l -5.0436,-3.53747 -2.1646,2.7146 -2.1645,2.71458 -15.67813,-11.06231 c -8.6229,-6.08426 -16.0978,-11.60423 -16.6108,-12.26658 -2.485,-3.20802 -1.9721,-4.58307 5.6249,-15.08109 l 7.706,-10.64865 -3.6672,-3.07879 c -3.1809,-2.67051 -3.4989,-3.28155 -2.3981,-4.60788 0.6979,-0.841 1.1014,-1.66474 0.8965,-1.8305 -0.2049,-0.16577 -12.8698,-5.28218 -28.1442,-11.36979 -22.9194,-9.13457 -28.074,-10.8795 -29.5026,-9.98729 -1.1196,0.69921 -3.5962,0.84809 -7.0108,0.42147 -4.8904,-0.61102 -5.3089,-0.85982 -5.6781,-3.37507 -0.2818,-1.91992 0.5546,-4.25083 2.8549,-7.95643 l 3.2535,-5.241 3.927,2.43457 c 6.23,3.86237 8.2253,6.03295 7.6506,8.32278 -0.4679,1.86399 1.6976,2.94931 26.3583,13.2108 26.0617,10.84446 26.9107,11.12455 28.2917,9.33358 1.393,-1.80647 1.5128,-1.78519 5.5432,0.98344 2.2656,1.5564 4.4585,2.46251 4.8729,2.01356 0.4145,-0.44894 4.8549,-6.56426 9.86783,-13.58959 l 9.1141,-12.77334 -2.8344,-1.79464 c -1.559,-0.98705 -2.8344,-1.97475 -2.8344,-2.19488 0,-0.39241 4.6299,-8.01211 5.3855,-8.86337 0.2114,-0.23813 1.865,0.36442 3.6747,1.33898 1.8096,0.97456 3.4436,1.59651 3.631,1.38212 0.6263,-0.71647 17.2928,-24.10352 17.9515,-25.19024 0.3768,-0.62157 -1.1569,-2.47856 -3.6535,-4.42361 -2.4288,-1.8923 -3.8691,-3.6204 -3.3069,-3.96784 0.5478,-0.33854 0.9959,-1.35186 0.9959,-2.25183 0,-0.89997 -8.5597,-11.13155 -19.0215,-22.73686 -17.17253,-19.04935 -19.20893,-21.00029 -20.94883,-20.06914 -1.6058,0.85939 -2.7784,0.44518 -7.0307,-2.48346 l -5.1034,-3.51487 3.2723,-5.11538 c 1.7997,-2.81346 3.2722,-5.53421 3.2722,-6.04611 0,-0.51191 1.6589,-0.93074 3.6864,-0.93074 3.5789,0 3.7483,0.15236 5.8056,5.2211 1.1897,2.93124 1.9135,6.29643 1.6503,7.67295 -0.4063,2.12554 2.05533,5.16158 18.49593,22.81226 14.7339,15.81843 19.3541,20.23673 20.7112,19.80601 0.9607,-0.30492 3.4796,0.32965 5.5976,1.41015 l 3.8508,1.96454 4.5083,-7.09847 c 2.4796,-3.90416 4.9355,-7.78169 5.4576,-8.61673 0.8044,-1.28669 4.7006,1.09443 25.5452,15.6114 23.5234,16.38261 24.6537,17.04731 25.9185,15.2415 0.7274,-1.03849 2.0637,-1.88816 2.9696,-1.88816 0.9059,0 6.5411,3.31365 12.5226,7.36367 l 10.8756,7.36367 -0.1453,4.40303 -0.1453,4.40303 23.6228,16.94555 c 12.9926,9.32005 23.6293,17.42192 23.6372,18.00415 0.01,0.58224 -6.0794,18.94858 -13.5273,40.8141 l -13.5416,39.7555 -18.0181,25.83154 c -9.91,14.20734 -18.2318,25.83489 -18.4928,25.83898 -0.261,0.004 -15.5421,-10.65907 -33.958,-23.69592 z" id="path4234-5" inkscape:connector-curvature="0"/></a></g></a></g></svg>
