<?xml version='1.0' encoding='UTF-8'?>
<!-- Created with Inkscape (http://www.inkscape.org/) and export_objects.py -->
<svg xmlns:cc="http://creativecommons.org/ns#" xmlns:dc="http://purl.org/dc/elements/1.1/" xmlns:inkscape="http://www.inkscape.org/namespaces/inkscape" xmlns:rdf="http://www.w3.org/1999/02/22-rdf-syntax-ns#" xmlns:sodipodi="http://sodipodi.sourceforge.net/DTD/sodipodi-0.dtd" xmlns:xlink="http://www.w3.org/1999/xlink" xmlns="http://www.w3.org/2000/svg" version="1.1" id="Layer_1" x="0px" y="0px" viewBox="0 0 231.82591 390.24675" style="enable-background:new 0 0 1920 1080;" xml:space="preserve" sodipodi:docname="SVG-007.svg" inkscape:version="0.92.3 (2405546, 2018-03-11)" width="231.82591px" height="390.24675px"><sodipodi:namedview pagecolor="#ffffff" bordercolor="#666666" borderopacity="1" objecttolerance="10" gridtolerance="10" guidetolerance="10" inkscape:pageopacity="0" inkscape:pageshadow="2" inkscape:window-width="2400" inkscape:window-height="1271" id="namedview7298" showgrid="false" inkscape:zoom="0.99878833" inkscape:cx="1067.4179" inkscape:cy="522.25773" inkscape:window-x="2391" inkscape:window-y="-9" inkscape:window-maximized="1" inkscape:current-layer="layer15"/>
<metadata id="metadata7302"><rdf:RDF><cc:Work rdf:about=""><dc:format>image/svg+xml</dc:format><dc:type rdf:resource="http://purl.org/dc/dcmitype/StillImage"/><dc:title/></cc:Work></rdf:RDF></metadata><g inkscape:groupmode="layer" inkscape:label="SVG-" transform="matrix(1.000000,0.000000,0.000000,1.000000,-701.752850,-579.964920)"><g id="g840" inkscape:label="007"><a xlink:href="pages/blue.html" cursor="pointer"><path inkscape:connector-curvature="0" id="path3779-8" d="m 855.18179,661.99198 -12.08038,2.4341 3.15532,17.21905 -22.44786,3.96669 -10.81825,-7.39247 -0.45076,-2.61441 -0.99167,-0.3606 -0.19168,-2.96934 -0.44623,-0.3506 -1.83274,2.56582 -3.60172,-2.773 -1.05183,-0.22312 -0.79684,0.25499 -0.70122,0.41436 -0.39841,0.58965 -0.23905,0.81278 0.11155,0.97214 0.50997,0.79685 5.54601,3.84076 -0.52591,0.66935 -7.95246,1.35463 -6.83688,9.67362 -90.76674,15.7891 2.88487,16.63306 4.28222,-0.72122 0.31553,0.67615 5.00344,-1.08183 -0.0451,-0.45076 104.4412,-17.57966 0.94659,0.9466 0.31553,2.11857 3.9667,-0.54091 4.5076,2.65949 0.83462,0.038 0.63748,-0.19921 0.58966,-0.49404 0.29483,-0.64544 0.0877,-0.66935 -0.1275,-0.62152 -0.21514,-0.46218 -0.46218,-0.43826 9.4042,-13.79474 8.13623,-1.28467 22.46888,15.53362 1.46618,-0.15938 6.21535,33.78599 -0.4781,0.1275 0.0637,0.28685 -0.41436,0.0637 1.17933,6.72532 h 0.38248 l 0.4781,0.57373 7.49029,43.66679 -0.35061,0.44624 -0.35061,0.0319 1.2112,6.78907 0.54185,0.22312 0.41436,0.0637 7.45841,43.92179 -0.38248,0.15937 0.0637,0.31873 -0.44623,0.19124 1.21119,6.66158 h 0.35062 l 0.0637,0.35061 0.41436,-0.0637 7.45841,44.04926 -0.44623,0.47812 0.57372,4.30293 0.63747,0.57372 -12.90879,30.50301 -0.41436,-2.45427 -27.53877,4.84479 1.17932,7.01219 -46.28042,7.55403 -1.05183,-5.35477 -40.51132,7.01219 3.82483,20.62221 32.73416,-5.6735 -0.8287,-4.65354 53.93008,-9.21147 1.37057,7.52217 27.41127,-4.84478 -1.94429,-11.12388 3.28298,-8.2712 -0.33468,-0.23905 0.14344,-0.22311 -0.35062,-0.15936 13.37501,-30.91747 0.3625,0.25509 0.47811,-0.23905 0.65341,-1.56181 -1.2799,-6.48904 -0.20285,-0.20283 -0.12396,-0.21411 -0.73248,0.20283 -7.55756,-44.11926 0.70122,0.0478 0.0797,-0.38248 0.33467,-0.0478 -1.27494,-6.94843 -0.35061,0.11155 -0.0159,-0.23905 h -0.70121 l -7.49029,-44.0174 0.63747,-0.12749 0.20718,-0.27094 -0.7331,-4.04793 0.78091,-0.0159 -0.58967,-3.12361 -1.60961,0.14343 -7.47435,-43.81023 0.86059,-0.28686 -0.28687,-0.4781 0.19124,-0.1275 -1.0979,-6.55503 -0.54091,-0.13522 -0.49583,-0.36061 -5.64251,-32.75923 0.50998,-0.0319 -0.15937,-1.14745 6.34285,-1.08371 2.80487,17.0205 -6.40659,0.9562 2.88455,16.90894 0.92433,-0.0319 0.81279,3.88858 17.16391,-2.53395 5.59382,32.1923 14.62996,-2.61364 -5.45038,-32.35167 15.68181,-2.86861 -6.62971,-36.46338 1.84867,-0.31873 -1.78492,-10.58203 2.10365,-0.70122 -18.22717,-105.65097 -12.71144,2.16365 0.72122,3.78638 -30.02064,5.40913 -0.45077,-2.2538 -11.80992,2.2538 0.36061,3.15532 -13.07206,2.16365 z" style="display:inline;fill:none;stroke:#000000;stroke-width:1.07458043px;stroke-linecap:butt;stroke-linejoin:miter;stroke-opacity:1"/><path inkscape:connector-curvature="0" id="path4244-9" d="m 782.36389,966.65645 c -1.06808,-3.10502 -3.26885,-17.08435 -2.68974,-17.08533 0.35334,-5.9e-4 8.60436,-1.37753 18.33559,-3.05986 9.73123,-1.68232 18.09887,-3.05877 18.59475,-3.05877 0.49586,0 1.19231,1.15839 1.54765,2.57421 0.56445,2.24892 1.05024,2.49923 3.84426,1.98077 1.759,-0.3264 12.37777,-2.10708 23.59726,-3.95706 l 20.3991,-3.36364 -0.1023,-3.55845 -0.1023,-3.55846 12.34175,-2.19021 c 10.95666,-1.9444 12.47064,-2.0169 13.49051,-0.64603 0.92633,1.24516 2.44162,-1.47208 7.82537,-14.03253 l 6.67658,-15.5767 -0.91315,-7.64966 c -1.22183,-10.2355 -6.79453,-42.55816 -7.5474,-43.77634 -0.32908,-0.53246 -0.78608,-3.41464 -1.01555,-6.40483 -0.61326,-7.99169 -6.63595,-42.85236 -7.75983,-44.91573 -0.53059,-0.9741 -0.97188,-3.269 -0.98067,-5.09978 -0.01,-1.83077 -1.86882,-13.42624 -4.13341,-25.76769 -2.26462,-12.34144 -4.27778,-24.04541 -4.47371,-26.00883 -0.19595,-1.96341 -1.6635,-10.85568 -3.26124,-19.7606 -2.07027,-11.53847 -3.34461,-16.34696 -4.43492,-16.73436 -0.84147,-0.29898 -6.41992,-3.89748 -12.39658,-7.99667 -10.54729,-7.23406 -10.9969,-7.43091 -15.29931,-6.69842 -4.04661,0.68894 -4.85669,1.37143 -9.30099,7.83623 -2.67758,3.89486 -4.64264,7.66967 -4.36682,8.38845 0.27582,0.71878 0.17166,1.29997 -0.23145,1.29152 -1.58684,-0.0332 -8.50697,-2.76088 -9.48448,-3.73838 -0.7018,-0.7018 -18.22341,1.91003 -54.27981,8.09115 -29.28391,5.02012 -54.83621,9.19599 -56.78287,9.27973 l -3.5394,0.15224 -1.15146,-6.97577 c -0.83486,-5.05778 -0.84323,-7.07367 -0.0304,-7.33184 0.61656,-0.19583 20.62764,-3.6954 44.46908,-7.7768 42.50935,-7.27718 43.39739,-7.47761 45.89794,-10.35944 6.18493,-7.12797 7.10665,-7.84434 10.09299,-7.84434 4.47276,0 4.86069,-1.83839 1.05786,-5.01314 -2.00037,-1.66997 -2.91658,-3.07224 -2.26886,-3.47255 0.59753,-0.3693 1.65359,0.0119 2.34683,0.84726 0.69322,0.83529 1.83988,1.5187 2.54814,1.5187 0.70827,0 1.99317,1.0766 2.85535,2.39246 0.86218,1.31584 3.8826,3.87799 6.71205,5.69363 l 5.14443,3.30118 10.64447,-1.7468 c 5.85446,-0.96073 11.18091,-2.07832 11.83656,-2.48354 0.90234,-0.55767 0.91378,-2.32281 0.0472,-7.2617 -0.62974,-3.58871 -1.36194,-7.26622 -1.62711,-8.17223 -0.38214,-1.30572 0.79932,-1.89939 5.69796,-2.86314 l 6.18005,-1.21585 -0.59486,-3.25658 c -0.32718,-1.79112 -3.01854,-16.41628 -5.9808,-32.50035 l -5.3859,-29.24376 6.07098,-0.70462 c 4.70935,-0.54657 6.18243,-1.13076 6.56786,-2.60467 0.58131,-2.22295 5.7706,-3.49283 10.2515,-2.50866 1.72705,0.37932 8.96951,-0.44412 17.07498,-1.94136 7.7417,-1.43004 14.23061,-2.60008 14.41979,-2.60008 0.18917,0 0.34395,-0.91796 0.34395,-2.03991 0,-1.12195 0.34424,-2.05989 0.76497,-2.08433 0.42073,-0.0244 2.7067,-0.42015 5.07992,-0.87937 l 4.31497,-0.83495 0.69132,3.68424 c 5.75937,30.69363 17.18243,99.81064 16.62297,100.57991 -1.42831,1.96399 -0.11053,19.5022 2.48749,33.10545 2.00646,10.50594 2.33094,13.90587 1.38303,14.4917 -0.68114,0.42098 -3.58152,1.05818 -6.44529,1.41597 -8.27272,1.03361 -8.08279,0.5139 -5.61961,15.37678 1.1965,7.21965 2.41567,14.30866 2.70925,15.75336 0.50668,2.49323 0.23361,2.68248 -5.37285,3.7234 -3.24866,0.60316 -6.20053,0.79807 -6.5597,0.43312 -0.35918,-0.36494 -1.40237,-5.25332 -2.31819,-10.86307 -0.91583,-5.60975 -2.13235,-12.5426 -2.7034,-15.40635 l -1.03826,-5.20679 -8.37301,1.36158 c -4.60517,0.74886 -8.48778,1.37075 -8.62802,1.38197 -0.14024,0.0112 -0.25499,-0.89757 -0.25499,-2.01952 0,-1.12195 -0.39985,-2.03991 -0.88856,-2.03991 -0.4887,0 -1.20283,-2.40964 -1.58695,-5.35476 -0.38413,-2.94512 -0.95199,-6.38746 -1.26193,-7.64965 -0.49321,-2.00857 -0.16795,-2.29491 2.60691,-2.29491 3.68634,0 3.76459,-0.51424 1.78463,-11.72946 l -1.26045,-7.13969 -3.93442,0.24277 c -2.16392,0.13353 -4.16943,0.4778 -4.45671,0.76507 -0.71489,0.71488 4.77926,33.23425 5.98788,35.44169 0.53333,0.97409 0.96969,3.19267 0.96969,4.93017 0,4.61569 7.10953,46.18557 8.00721,46.81862 0.41935,0.29575 0.8311,2.6861 0.91499,5.31191 0.20075,6.28325 6.16354,40.9146 8.01562,46.554 0.79663,2.42567 1.19577,4.81912 0.88697,5.31875 -0.67571,1.09334 6.72103,45.13 7.70274,45.85846 1.02536,0.76084 1.82978,6.00352 0.97266,6.33913 -0.82843,0.32437 -13.10548,29.33389 -15.44663,36.49895 -1.04888,3.21008 -1.25555,5.95017 -0.68752,9.11524 0.44669,2.48899 0.55728,4.78388 0.24576,5.09978 -0.31153,0.31587 -6.01101,1.53679 -12.66551,2.71314 l -12.09908,2.13883 -0.63568,-3.76252 -0.63568,-3.76254 -27.73133,4.76607 c -26.29329,4.51892 -27.71931,4.8776 -27.49928,6.91701 0.27948,2.5901 0.15959,2.63067 -15.6447,5.29284 -14.53828,2.44892 -14.61207,2.45284 -15.17861,0.80584 z" style="display:inline;stroke-width:1.01995432"/></a></g></g></svg>
