<?xml version='1.0' encoding='UTF-8'?>
<!-- Created with Inkscape (http://www.inkscape.org/) and export_objects.py -->
<svg xmlns:cc="http://creativecommons.org/ns#" xmlns:dc="http://purl.org/dc/elements/1.1/" xmlns:inkscape="http://www.inkscape.org/namespaces/inkscape" xmlns:rdf="http://www.w3.org/1999/02/22-rdf-syntax-ns#" xmlns:sodipodi="http://sodipodi.sourceforge.net/DTD/sodipodi-0.dtd" xmlns:xlink="http://www.w3.org/1999/xlink" xmlns="http://www.w3.org/2000/svg" version="1.1" id="Layer_1" x="0px" y="0px" viewBox="0 0 120.33448 175.72017" style="enable-background:new 0 0 1920 1080;" xml:space="preserve" sodipodi:docname="SVG-002.svg" inkscape:version="0.92.3 (2405546, 2018-03-11)" width="120.33448px" height="175.72017px"><sodipodi:namedview pagecolor="#ffffff" bordercolor="#666666" borderopacity="1" objecttolerance="10" gridtolerance="10" guidetolerance="10" inkscape:pageopacity="0" inkscape:pageshadow="2" inkscape:window-width="2400" inkscape:window-height="1271" id="namedview7298" showgrid="false" inkscape:zoom="0.99878833" inkscape:cx="1067.4179" inkscape:cy="522.25773" inkscape:window-x="2391" inkscape:window-y="-9" inkscape:window-maximized="1" inkscape:current-layer="layer15"/>
<metadata id="metadata7302"><rdf:RDF><cc:Work rdf:about=""><dc:format>image/svg+xml</dc:format><dc:type rdf:resource="http://purl.org/dc/dcmitype/StillImage"/><dc:title/></cc:Work></rdf:RDF></metadata><g inkscape:groupmode="layer" inkscape:label="SVG-" transform="matrix(1.000000,0.000000,0.000000,1.000000,-950.181630,-730.110080)"><g id="g836" inkscape:label="002"><a xlink:href="pages/green.html" cursor="pointer"><path inkscape:connector-curvature="0" id="path3774-6" d="m 1019.5228,730.73114 -56.73496,9.81705 -0.1275,-1.72116 -11.85696,1.59367 6.24721,37.22833 11.92072,-2.03991 22.37529,129.59795 55.7787,-9.88081 -5.6735,-31.87357 28.4313,-5.09977 -3.8886,-19.69787 -27.9213,4.97228 -7.2671,-44.30427 28.0486,-4.84478 -3.6973,-19.63412 -27.1562,4.97228 z" style="display:inline;fill:none;stroke:#000000;stroke-width:1.07458043px;stroke-linecap:butt;stroke-linejoin:miter;stroke-opacity:1"/><path inkscape:connector-curvature="0" id="path4246-6" d="m 991.95707,903.16751 c 0,-0.86778 -21.34965,-124.314 -21.89477,-126.5982 -0.46693,-1.95654 -0.9263,-2.08113 -4.86471,-1.31937 -7.86271,1.52079 -7.21102,2.54115 -10.27012,-16.07984 -3.11968,-18.98968 -3.10174,-19.07432 3.88111,-18.30108 2.27453,0.25187 16.18935,-1.59281 31.44646,-4.16884 15.17516,-2.56218 27.71156,-4.22584 28.14106,-3.73445 0.426,0.48737 2.5119,11.21318 4.6351,23.83512 2.1234,12.62193 4.0144,23.22013 4.2023,23.55157 0.1879,0.33143 6.1841,-0.47278 13.3247,-1.78712 8.9629,-1.64975 13.1923,-2.05105 13.659,-1.29598 0.3718,0.60155 1.2543,4.3301 1.9612,8.28569 1.0365,5.80014 1.0351,7.34656 -0.011,7.99077 -0.7108,0.43935 -6.4927,1.61437 -12.8486,2.61115 -6.3558,0.99678 -11.9979,2.08546 -12.538,2.41927 -1.3627,0.84223 5.9663,45.94519 7.4629,45.92659 0.6256,-0.009 6.9437,-1.0696 14.0402,-2.35959 l 12.9027,-2.34545 1.7034,8.57753 c 0.9369,4.71766 1.5431,8.73798 1.347,8.93407 -0.1961,0.19607 -6.31,1.44035 -13.5863,2.76505 -11.3458,2.06559 -13.2678,2.69068 -13.4979,4.39004 -0.1476,1.08982 0.8465,8.17772 2.209,15.75088 1.3626,7.57316 2.3319,13.91531 2.154,14.09367 -0.3878,0.38884 -50.45861,9.35174 -52.28755,9.35972 -0.70116,0.003 -1.27488,-0.22249 -1.27488,-0.5012 z" style="display:inline;stroke-width:1.01995432"/></a></g></g></svg>
