<?xml version='1.0' encoding='UTF-8'?>
<!-- Created with Inkscape (http://www.inkscape.org/) and export_objects.py -->
<svg xmlns:cc="http://creativecommons.org/ns#" xmlns:dc="http://purl.org/dc/elements/1.1/" xmlns:inkscape="http://www.inkscape.org/namespaces/inkscape" xmlns:rdf="http://www.w3.org/1999/02/22-rdf-syntax-ns#" xmlns:sodipodi="http://sodipodi.sourceforge.net/DTD/sodipodi-0.dtd" xmlns:xlink="http://www.w3.org/1999/xlink" xmlns="http://www.w3.org/2000/svg" version="1.1" id="Layer_1" x="0px" y="0px" viewBox="0 0 476.23887 298.50496" style="enable-background:new 0 0 1920 1080;" xml:space="preserve" sodipodi:docname="SVG-005.svg" inkscape:version="0.92.3 (2405546, 2018-03-11)" width="476.23887px" height="298.50496px"><sodipodi:namedview pagecolor="#ffffff" bordercolor="#666666" borderopacity="1" objecttolerance="10" gridtolerance="10" guidetolerance="10" inkscape:pageopacity="0" inkscape:pageshadow="2" inkscape:window-width="2400" inkscape:window-height="1271" id="namedview7298" showgrid="false" inkscape:zoom="0.99878833" inkscape:cx="1067.4179" inkscape:cy="522.25773" inkscape:window-x="2391" inkscape:window-y="-9" inkscape:window-maximized="1" inkscape:current-layer="layer15"/>
<metadata id="metadata7302"><rdf:RDF><cc:Work rdf:about=""><dc:format>image/svg+xml</dc:format><dc:type rdf:resource="http://purl.org/dc/dcmitype/StillImage"/><dc:title/></cc:Work></rdf:RDF></metadata><g inkscape:groupmode="layer" inkscape:label="SVG-" transform="matrix(1.000000,0.000000,0.000000,1.000000,-508.544350,-179.327030)"><g id="g871" inkscape:label="005"><path inkscape:connector-curvature="0" id="path3760-6" d="m 899.89721,470.95972 -32.99566,-21.6365 -15.14554,20.73498 -5.58943,-4.5076 -15.32586,2.70456 -3.42578,-20.37437 1.75888,-5.25488 1.46619,-2.03991 -7.96839,-5.19539 -4.11169,5.70537 -17.8492,-26.61444 28.52684,-40.22445 -17.53163,-12.51661 -2.20872,3.13279 -29.54735,-21.14067 4.57522,-6.35572 -27.11323,-18.90939 -31.84622,14.67224 -8.85745,-6.44587 31.77861,-14.62718 -11.94515,-8.33906 -1.53259,1.80305 -4.80059,-0.293 0.54091,3.24547 -7.39247,1.21706 0.63106,3.69623 -17.10636,3.04264 -0.78882,-3.92162 -4.64284,0.83391 -0.0676,-0.60853 -1.66781,0.0902 -2.02842,-2.99755 -8.60953,1.41989 -1.55512,-8.42922 -1.26213,0.0902 -2.11858,-2.81726 -1.08182,0.0676 -2.23126,-11.67471 -24.00299,4.147 -0.42823,-2.61441 -29.02896,5.04852 1.23959,8.1813 -5.16121,0.94659 -1.57766,-8.27145 -32.58998,5.61198 0.8339,4.62028 -12.26068,2.02842 0.72122,4.03431 -8.97014,1.48751 1.75797,10.45765 -1.82558,0.29298 2.36649,15.07795 0.67614,-0.0226 -0.31553,-2.47918 4.59775,-0.85645 1.53259,8.81237 -4.71044,0.92406 -0.22539,-1.01421 -0.74374,0.18031 0.6536,3.49338 -18.36849,3.11026 -0.15776,-1.21706 -9.78151,1.73542 0.6536,3.65117 -2.38903,0.42822 -0.76629,-3.78639 -1.6002,0.33807 -0.83391,-4.6203 13.99611,-2.29887 -7.05439,-39.71199 -17.57966,2.99755 -1.03675,-6.01765 -1.03675,0.11269 -1.32974,-1.39735 1.73543,-2.5468 v -0.87898 l 17.60219,-2.92994 -8.99267,-51.97268 -8.56444,1.69036 -1.21706,-6.62619 -8.94759,1.30721 -1.10437,-5.79227 -1.01421,0.18031 -1.37482,-1.44244 1.82558,-1.82558 -0.045,-1.44243 17.51204,-2.81725 -4.30476,-25.35527 -8.78983,1.64528 -1.03675,-5.16121 -5.83734,0.99167 -1.64528,-10.16465 -2.52426,-1.05929 -0.24791,-1.01421 0.36061,-0.78883 14.87508,-2.4341 0.0676,0.56344 1.69036,-0.27045 v -0.60852 l 18.36848,-3.2004 18.07874,105.57225 8.38275,-1.33869 1.17932,5.35475 14.5981,-2.58175 0.3506,1.30682 32.67043,-5.70537 -1.49806,-8.25526 5.29101,-0.92433 1.43432,8.25525 29.10057,-4.97228 -2.83675,-16.73362 -0.6056,0.22311 -1.40244,-7.96839 0.70122,-0.12749 -3.05986,-17.94483 93.96689,-15.98077 4.28222,25.06228 3.56101,1.39735 0.40568,1.17198 0.67614,-0.22538 1.30721,7.3474 -4.23715,1.08182 2.38903,13.97357 0.90152,-0.0902 2.29887,2.8398 1.53259,-0.13524 1.26213,7.3474 -1.03675,0.27045 0.18031,0.72122 -2.25381,2.92994 11.90008,8.4743 2.52425,-27.58653 9.55613,0.90152 -3.2004,32.95058 19.2024,13.74819 1.53257,-1.93827 4.73299,3.47086 -1.26212,1.93826 5.54435,3.87654 58.23824,-29.47973 40.09174,28.3258 12.11196,-5.29102 10.0083,7.01219 17.7217,-2.86861 1.84868,8.6696 -3.95233,0.89246 0.19124,0.57373 -3.42045,5.01225 47.91583,35.565 -11.35916,1.35228 1.35228,2.34395 -1.08182,0.49585 -6.80649,11.71976 8.97013,6.17542 -9.46596,11.17886 3.3807,2.47917 -9.24058,12.66637 -3.20041,-2.29888 -5.2739,7.57279 3.9667,2.65947 -17.71489,25.28767 -4.28222,-2.92994 -5.09359,7.79815 3.0201,2.02842 -8.92506,12.71144 -3.06518,-2.2538 -7.57277,12.0353 -10.54779,-6.67126 -0.54091,0.54092" style="display:inline;fill:none;stroke:#000000;stroke-width:1.07458043px;stroke-linecap:butt;stroke-linejoin:miter;stroke-opacity:1"/><path inkscape:connector-curvature="0" id="path4236-5" d="m 905.26098,472.23359 c -2.52438,-1.67812 -4.91275,-3.0531 -5.30748,-3.0555 -0.39473,-0.002 -7.50891,-4.43581 -15.80929,-9.85203 -8.30038,-5.4162 -15.79042,-10.03224 -16.64451,-10.25782 -1.02068,-0.2696 -3.96068,2.93075 -8.57804,9.33767 -3.8638,5.36132 -7.25967,9.74787 -7.54636,9.74787 -0.28669,0 -1.37363,-0.77141 -2.41545,-1.71424 -1.64851,-1.49188 -2.84955,-1.57964 -9.2599,-0.67665 -4.54145,0.63973 -7.60773,0.67251 -7.99693,0.0854 -0.34717,-0.52364 -1.20959,-4.98714 -1.91647,-9.91889 -1.13618,-7.9267 -1.09253,-9.35316 0.37622,-12.29737 0.91383,-1.8318 1.66151,-3.44591 1.66151,-3.5869 0,-0.141 -2.13349,-1.50666 -4.74109,-3.03482 l -4.74108,-2.77846 -1.81887,2.41132 c -1.00037,1.32622 -2.01308,2.18868 -2.25046,1.91658 -0.69169,-0.79284 -15.48521,-22.86382 -15.83012,-23.61753 -0.17212,-0.37607 6.12471,-9.73161 13.99293,-20.79004 l 14.30586,-20.10627 -9.29355,-6.64828 c -7.62735,-5.45633 -9.61069,-6.45021 -11.06249,-5.54353 -1.70862,1.06702 -7.70644,-2.68245 -25.25878,-15.79024 l -3.34958,-2.50142 2.03647,-3.29509 2.03647,-3.29508 -14.14154,-9.8591 -14.14153,-9.85911 -15.41318,7.11287 c -8.47726,3.91206 -15.77659,7.11285 -16.22077,7.11285 -0.44418,0 -2.21934,-1.04156 -3.94482,-2.31457 l -3.13722,-2.31458 15.81705,-7.2718 15.81704,-7.27179 -4.97333,-3.62434 c -6.96949,-5.07905 -9.81534,-6.51433 -10.26489,-5.17698 -0.20349,0.60533 -1.77409,0.88827 -3.51357,0.63297 -2.82598,-0.41477 -3.07555,-0.241 -2.45626,1.71023 0.54531,1.71818 0.26621,2.17195 -1.33588,2.17195 -3.3077,0 -5.25192,1.12182 -5.25192,3.03035 0,1.33299 -1.1106,1.94805 -4.33482,2.40063 -2.38414,0.33467 -5.76136,0.90037 -7.50492,1.25714 -2.6074,0.53351 -3.26394,0.28988 -3.69867,-1.37247 -0.41546,-1.58874 -1.13517,-1.90518 -3.36402,-1.4791 -1.99461,0.38129 -3.2294,0.003 -4.16371,-1.27441 -1.04831,-1.43364 -2.17429,-1.68113 -5.34314,-1.17441 -4.21451,0.67393 -5.24922,-0.20922 -5.24922,-4.48033 0,-1.04819 -0.61622,-2.27285 -1.36938,-2.72145 -2.30482,-1.37284 -4.51859,-5.69343 -5.25196,-10.25023 -0.40593,-2.52227 -1.25276,-4.3348 -2.02525,-4.3348 -1.27402,0 -15.91706,2.557 -20.6771,3.61067 -1.62899,0.3606 -2.29489,0.0385 -2.29489,-1.11009 0,-1.05777 -0.6181,-1.4393 -1.78492,-1.10176 -0.98171,0.28398 -7.9056,1.5506 -15.38643,2.8147 l -13.6015,2.29839 0.34944,4.3937 c 0.28024,3.52359 0.0203,4.3937 -1.31247,4.3937 -1.15524,0 -1.86449,-1.2669 -2.3264,-4.15555 -0.61985,-3.87632 -0.85135,-4.1172 -3.44521,-3.58475 -1.52939,0.31395 -8.28847,1.50734 -15.02017,2.65198 -17.54881,2.98397 -16.83429,2.75353 -16.55944,5.34059 0.21353,2.0099 -0.4043,2.3596 -5.56769,3.15148 -4.82085,0.73935 -5.86086,1.26249 -6.11973,3.0783 -0.23344,1.63751 -1.20948,2.31579 -3.8817,2.69754 l -3.56984,0.50997 -0.0744,6.11974 c -0.12271,10.09891 1.63142,21.92901 3.25155,21.92901 0.77694,0 1.4126,-0.72671 1.4126,-1.61493 0,-3.01176 2.54783,-0.79875 2.87221,2.49477 0.30092,3.05536 0.14856,3.22903 -2.2949,2.61575 -2.18981,-0.54959 -2.61722,-0.30568 -2.61722,1.49361 0,1.18276 -0.14519,2.15048 -0.32265,2.15048 -0.17747,0 -2.81659,0.45183 -5.86474,1.00405 -3.04814,0.55224 -8.93793,1.2093 -13.08841,1.46014 -4.15048,0.25084 -7.86283,0.9682 -8.24967,1.59411 -0.48539,0.78538 -1.11556,0.64134 -2.03359,-0.46483 -0.73164,-0.88157 -1.1501,-1.76255 -0.92992,-1.95772 0.22018,-0.19519 3.33396,-0.86108 6.91951,-1.47977 3.58556,-0.6187 6.63827,-1.25113 6.78381,-1.40541 0.25568,-0.27104 -6.74587,-40.83323 -7.13212,-41.31855 -0.10499,-0.13193 -4.06079,0.44118 -8.79064,1.27355 -4.72985,0.83238 -8.71447,1.51405 -8.85471,1.51481 -0.14025,7.7e-4 -0.25499,-1.11896 -0.25499,-2.48829 0,-1.36932 -0.43894,-2.76096 -0.97542,-3.09253 -2.63448,-1.6282 0.6899,-3.37818 8.67397,-4.56601 6.84968,-1.01907 8.60929,-1.62754 8.56514,-2.96184 -0.0305,-0.9236 -2.01277,-12.92426 -4.40489,-26.66815 l -4.34931,-24.98887 h -4.51972 c -4.21206,0 -4.54236,-0.19802 -4.85249,-2.90902 -0.32271,-2.82096 -0.46681,-2.88893 -4.76024,-2.24509 -4.00832,0.60109 -4.49676,0.44197 -5.15945,-1.68077 -0.40259,-1.2896 -1.10487,-2.58633 -1.56064,-2.88161 -2.03016,-1.31539 1.281,-3.17048 7.30088,-4.09036 3.60368,-0.55067 7.51676,-1.21814 8.69574,-1.48328 l 2.14359,-0.48208 -2.35428,-13.02296 c -1.29483,-7.16263 -2.37419,-13.20009 -2.39857,-13.41659 -0.0244,-0.2165 -2.10972,-0.11053 -4.63411,0.23547 -4.42648,0.60672 -4.58979,0.53453 -4.58979,-2.02876 0,-2.39085 -0.29815,-2.59824 -2.96761,-2.06435 -3.20068,0.64014 -4.17208,-0.5098 -4.17208,-4.93889 0,-1.31649 -0.67625,-3.06988 -1.5028,-3.89641 -1.32378,-1.32378 -0.68584,-1.64322 5.35476,-2.68143 3.77166,-0.64823 11.09745,-1.92283 16.27954,-2.83245 5.18209,-0.90961 9.58873,-1.45694 9.79253,-1.21627 0.2038,0.24067 3.92457,21.32114 8.26837,46.8455 4.3438,25.52436 8.36614,49.06729 8.93854,52.31763 l 1.04072,5.9097 4.4729,-0.67076 c 4.35829,-0.65356 4.47289,-0.59918 4.47289,2.12245 0,2.62166 0.20356,2.74818 3.31485,2.06027 1.82317,-0.4031 6.33194,-0.89641 10.01951,-1.09626 3.68755,-0.19984 13.16525,-1.53383 21.06156,-2.96443 7.8963,-1.43058 14.64085,-2.60106 14.98788,-2.60106 0.34704,0 0.50789,-1.90121 0.35747,-4.22492 -0.37301,-5.76227 1.99838,-6.54258 2.89239,-0.95173 0.36557,2.28618 1.20343,4.15669 1.8619,4.15669 0.65848,0 7.59925,-1.14549 15.42395,-2.54554 7.8247,-1.40006 14.3502,-2.54751 14.50114,-2.5499 0.15094,-0.002 0.0586,-1.03703 -0.20526,-2.29922 -2.07757,-9.93953 -3.94143,-20.28905 -4.25488,-23.62621 -0.20624,-2.19564 -0.86934,-6.71835 -1.47355,-10.05046 -0.60424,-3.33211 -0.95503,-6.18839 -0.77953,-6.3473 0.54689,-0.49518 91.00214,-15.74142 91.34702,-15.39653 0.17947,0.17948 1.2183,5.52527 2.30853,11.87955 1.63743,9.54372 2.40989,11.91798 4.44101,13.65021 3.3241,2.83494 4.1003,6.42479 1.56329,7.23001 -2.24414,0.71225 -2.32151,1.66074 -0.83283,10.20946 0.86011,4.93903 1.62351,6.60891 3.4741,7.59931 2.97684,1.59316 3.90783,5.90159 1.93625,8.96058 -0.82371,1.27804 -1.27384,2.68586 -1.00027,3.12851 0.27357,0.44264 3.2431,2.73081 6.59897,5.08481 7.06214,4.95382 6.75704,5.24894 7.72985,-7.47716 1.18685,-15.52598 1.28071,-15.8093 5.23732,-15.8093 4.12504,0 4.00526,-1.14696 1.96651,18.83061 -0.79932,7.83244 -1.35945,14.29156 -1.24475,14.35361 0.1147,0.062 4.31242,3.04265 9.32826,6.6236 5.32262,3.79995 10.20631,6.52938 11.72946,6.55545 1.86437,0.0319 2.69794,0.6625 2.91844,2.20785 0.17255,1.20924 1.79069,2.96132 3.66932,3.97302 l 3.36064,1.80983 28.78631,-14.49764 28.78631,-14.49763 2.7328,1.76837 c 1.50305,0.97259 10.39783,7.20035 19.76621,13.83947 9.36835,6.6391 17.45814,12.07109 17.97727,12.07109 0.51913,0 3.43442,-1.10144 6.47842,-2.44763 l 5.53453,-2.44764 4.88805,3.54725 4.88805,3.54728 8.52853,-1.44241 c 7.35901,-1.24461 8.6046,-1.24409 9.08345,0.004 1.03772,2.70428 0.5586,4.11951 -2.50493,7.39903 -1.68292,1.80158 -3.05986,3.88354 -3.05986,4.62657 0,0.74304 10.07177,8.81217 22.38171,17.93141 12.30996,9.11925 22.15092,16.95389 21.86883,17.41032 -0.2821,0.45643 -2.35265,0.82988 -4.60124,0.82988 -3.4352,0 -3.99752,0.28621 -3.51978,1.79145 0.33489,1.05515 -0.93533,4.28799 -3.09054,7.86575 -4.04247,6.7107 -4.13852,6.3213 2.6736,10.83893 l 2.45331,1.62699 -4.76969,5.58301 c -4.19906,4.91503 -4.59012,5.76259 -3.26861,7.08411 1.32152,1.32152 1.05317,2.14099 -2.24283,6.84933 -2.57864,3.68354 -4.07231,5.01987 -4.79886,4.29331 -1.71881,-1.71881 -2.43133,-1.2838 -5.71545,3.48951 -3.07568,4.47036 -3.09249,4.56267 -1.03176,5.66554 2.00305,1.072 1.79646,1.55443 -4.7147,11.00989 -9.12987,13.25832 -10.03504,14.18062 -12.17454,12.40499 -1.46074,-1.21232 -1.9311,-1.06726 -3.57949,1.1039 -3.76383,4.95751 -4.58132,7.13801 -3.03449,8.094 1.12736,0.69675 0.70805,1.91437 -2.08704,6.06054 -2.77874,4.12191 -3.94536,5.08443 -5.67448,4.68175 -1.76746,-0.41159 -2.81454,0.5457 -5.57025,5.09262 -1.86652,3.07971 -3.64092,5.59752 -3.94312,5.59512 -0.30221,-0.003 -2.61487,-1.3777 -5.13926,-3.05581 z" style="display:inline;fill:#ffff00;stroke-width:1.01995432"/></g></g></svg>
