<?xml version='1.0' encoding='UTF-8'?>
<!-- Created with Inkscape (http://www.inkscape.org/) and export_objects.py -->
<svg xmlns:cc="http://creativecommons.org/ns#" xmlns:dc="http://purl.org/dc/elements/1.1/" xmlns:inkscape="http://www.inkscape.org/namespaces/inkscape" xmlns:rdf="http://www.w3.org/1999/02/22-rdf-syntax-ns#" xmlns:sodipodi="http://sodipodi.sourceforge.net/DTD/sodipodi-0.dtd" xmlns:xlink="http://www.w3.org/1999/xlink" xmlns="http://www.w3.org/2000/svg" version="1.1" id="Layer_1" x="0px" y="0px" viewBox="0 0 35.228823 57.769562" style="enable-background:new 0 0 1920 1080;" xml:space="preserve" sodipodi:docname="SVG-009.svg" inkscape:version="0.92.3 (2405546, 2018-03-11)" width="35.228823px" height="57.769562px"><sodipodi:namedview pagecolor="#ffffff" bordercolor="#666666" borderopacity="1" objecttolerance="10" gridtolerance="10" guidetolerance="10" inkscape:pageopacity="0" inkscape:pageshadow="2" inkscape:window-width="2400" inkscape:window-height="1271" id="namedview7298" showgrid="false" inkscape:zoom="0.99878833" inkscape:cx="1067.4179" inkscape:cy="522.25773" inkscape:window-x="2391" inkscape:window-y="-9" inkscape:window-maximized="1" inkscape:current-layer="layer15"/>
<metadata id="metadata7302"><rdf:RDF><cc:Work rdf:about=""><dc:format>image/svg+xml</dc:format><dc:type rdf:resource="http://purl.org/dc/dcmitype/StillImage"/><dc:title/></cc:Work></rdf:RDF></metadata><g inkscape:groupmode="layer" inkscape:label="SVG-" transform="matrix(1.000000,0.000000,0.000000,1.000000,-966.262190,-660.919550)"><g id="g888" inkscape:label="009"><path inkscape:connector-curvature="0" id="path3767-9" d="m 991.58193,661.54122 -24.70172,4.32729 8.74475,52.19806 25.24254,-4.41745 z" style="display:inline;fill:none;stroke:#000000;stroke-width:1.07458043px;stroke-linecap:butt;stroke-linejoin:miter;stroke-opacity:1"/><path inkscape:connector-curvature="0" id="path4248-2" d="m 976.18796,714.78567 c -0.88393,-3.86722 -7.68981,-45.4138 -7.68981,-46.9425 0,-1.00544 3.13042,-1.91593 10.86474,-3.16004 5.97559,-0.9612 11.00563,-1.6068 11.17777,-1.43464 0.17215,0.17216 2.30788,11.38569 4.7461,24.91895 l 4.43308,24.60595 -9.74612,1.69289 c -5.36034,0.93108 -10.53402,1.91323 -11.49704,2.18256 -1.20679,0.3375 -1.91807,-0.24153 -2.28872,-1.86317 z" style="display:inline;fill:#ff00ff;stroke-width:1.01995432"/></g></g></svg>
