<?xml version='1.0' encoding='UTF-8'?>
<!-- Created with Inkscape (http://www.inkscape.org/) and export_objects.py -->
<svg xmlns:cc="http://creativecommons.org/ns#" xmlns:dc="http://purl.org/dc/elements/1.1/" xmlns:inkscape="http://www.inkscape.org/namespaces/inkscape" xmlns:rdf="http://www.w3.org/1999/02/22-rdf-syntax-ns#" xmlns:sodipodi="http://sodipodi.sourceforge.net/DTD/sodipodi-0.dtd" xmlns:xlink="http://www.w3.org/1999/xlink" xmlns="http://www.w3.org/2000/svg" version="1.1" id="Layer_1" x="0px" y="0px" viewBox="0 0 269.67317 272.78902" style="enable-background:new 0 0 1920 1080;" xml:space="preserve" sodipodi:docname="SVG-004.svg" inkscape:version="0.92.3 (2405546, 2018-03-11)" width="269.67317px" height="272.78902px"><sodipodi:namedview pagecolor="#ffffff" bordercolor="#666666" borderopacity="1" objecttolerance="10" gridtolerance="10" guidetolerance="10" inkscape:pageopacity="0" inkscape:pageshadow="2" inkscape:window-width="2400" inkscape:window-height="1271" id="namedview7298" showgrid="false" inkscape:zoom="0.99878833" inkscape:cx="1067.4179" inkscape:cy="522.25773" inkscape:window-x="2391" inkscape:window-y="-9" inkscape:window-maximized="1" inkscape:current-layer="layer15"/>
<metadata id="metadata7302"><rdf:RDF><cc:Work rdf:about=""><dc:format>image/svg+xml</dc:format><dc:type rdf:resource="http://purl.org/dc/dcmitype/StillImage"/><dc:title/></cc:Work></rdf:RDF></metadata><g inkscape:groupmode="layer" inkscape:label="SVG-" transform="matrix(1.000000,0.000000,0.000000,1.000000,-914.355710,-93.255157)"><g id="g867" inkscape:label="004"><path inkscape:connector-curvature="0" id="path3765-4" d="m 984.62123,365.205 123.28697,-21.16404 -3.3148,-16.44677 2.5499,-0.63747 -0.8925,-7.90465 36.4633,-6.50221 -1.4024,-2.4224 32.8935,-5.60974 0.3826,-0.63747 8.797,-1.40243 -4.2073,-19.63413 -7.1397,1.78492 -1.1474,-5.86473 -8.1596,1.52992 -29.3237,-168.29246 -3.1873,0.63747 1.7848,8.15964 -15.8092,3.18736 3.3148,20.65407 -7.0122,-3.31486 -5.0997,-24.4789 -2.6775,0.38249 4.8449,26.26382 7.1396,3.44234 5.7373,30.98112 -6.7572,1.27494 18.1041,105.43778 -66.1694,12.23946 -1.785,-8.66962 -55.5875,9.30709 1.9124,8.92459 -27.28377,4.84479 -8.41463,-48.19285 2.29489,-0.76496 -1.52992,-8.15963 7.26717,-1.40244 3.57193,-3.26031 0.92405,-3.15532 -0.0451,-2.18618 -0.54094,-2.09604 -1.46494,-1.80304 -16.20483,-11.74231 3.62862,-0.36061 -0.56344,-2.63694 -3.33563,-1.05929 -0.58599,1.05929 -5.55972,-32.17159 -1.72118,-1.27494 -0.54184,-1.3387 0.15936,-1.78492 0.41436,-1.14744 0.6056,-0.66935 -7.10782,-39.84196 -0.92433,-0.63748 -0.89246,-1.72117 -0.0637,-1.78492 0.79684,-1.59368 0.22312,-0.28686 -7.17156,-40.03321 -5.51413,0.92433 -0.15936,-2.35864 -8.73337,1.37056 -7.96839,-7.330925 -10.7414,2.039908 2.00804,11.315127 -1.43431,0.19124 2.93237,16.86112 4.84478,-0.7331 2.70925,15.64994 -4.97227,0.98807 3.53797,19.95286 4.8129,-0.89245 2.70926,15.61805 -4.84478,0.9562 3.60171,20.17597 4.52605,-0.92433 2.83674,15.71367 -4.65353,0.82871 3.3786,20.08035 4.65353,-0.82872 2.74113,15.61806 -4.90852,0.95621 3.66545,20.0166 4.52605,-0.86058 2.80487,15.58618 -4.87665,0.79683 2.773,16.44677 -0.63747,1.49805 1.21119,0.70123 -0.95621,1.81679 1.46619,0.89246 -0.82871,1.88054 1.14744,0.57371 -0.98807,1.8168 1.46618,0.95621 -0.86059,1.72117 1.27494,0.7331 -0.79683,1.84867 1.27494,0.63747 -1.01995,1.97615 1.52992,0.63748 0.6056,4.23918 0.63748,0.35061 0.0956,0.54185 -14.31123,2.67739 -3.2511,4.9404 48.22471,35.63465 z" style="display:inline;opacity:1;fill:none;stroke:#000000;stroke-width:1.07458043px;stroke-linecap:butt;stroke-linejoin:miter;stroke-opacity:1"/><path inkscape:connector-curvature="0" id="path4238-6" d="m 960.5218,347.05131 c -20.61293,-15.20052 -23.42027,-17.59903 -22.53495,-19.25324 0.98478,-1.84009 2.25275,-2.27597 10.71782,-3.68444 2.24389,-0.37335 4.38044,-0.84815 4.74787,-1.05514 0.36743,-0.20696 0.0546,-2.78581 -0.69515,-5.73077 -0.74976,-2.94495 -1.61849,-6.96088 -1.93049,-8.92429 -0.312,-1.96342 -0.76603,-4.71729 -1.00892,-6.11973 -3.15099,-18.19261 -3.14777,-18.27134 0.80297,-19.66133 0.49297,-0.17343 0.23491,-3.96749 -0.57348,-8.4312 -1.31309,-7.25055 -1.70631,-8.10736 -3.68814,-8.03626 -2.45482,0.088 -2.54716,-0.12913 -4.34808,-10.22782 -0.72223,-4.04991 -0.8702,-7.22678 -0.3452,-7.41126 3.61374,-1.26977 3.7571,-1.89225 2.32009,-10.07366 -1.25203,-7.12829 -1.67023,-8.04085 -3.92826,-8.57198 -2.27091,-0.53417 -2.664,-1.41553 -3.87833,-8.69562 -0.7432,-4.45567 -0.98296,-8.23143 -0.53281,-8.39061 3.50255,-1.23847 3.64916,-1.90159 2.21968,-10.04019 -1.24786,-7.10448 -1.6753,-8.04203 -3.9056,-8.56663 -2.15756,-0.50749 -2.67853,-1.50229 -3.76193,-7.18352 -1.76216,-9.2406 -1.68981,-10.27513 0.76344,-10.91667 1.89217,-0.49482 2.06726,-1.05808 1.47628,-4.7493 -0.36876,-2.30335 -0.93483,-6.11377 -1.2579,-8.4676 -0.50455,-3.67598 -0.96421,-4.32346 -3.25843,-4.5898 -2.42498,-0.28152 -2.78432,-0.92075 -3.90112,-6.93979 -1.71583,-9.24751 -1.6362,-10.30923 0.82145,-10.95192 1.89216,-0.49481 2.06726,-1.05807 1.47628,-4.74929 -0.36878,-2.30335 -0.93483,-6.11377 -1.2579,-8.46761 -0.50216,-3.65853 -0.97023,-4.32471 -3.22493,-4.58979 -3.17679,-0.37349 -3.9025,-2.97984 -4.66781,-16.76435 l -0.51715,-9.314594 3.14986,-0.629973 c 5.06497,-1.012985 5.74732,-0.812049 9.86008,2.903581 3.36527,3.040336 4.41535,3.451746 7.52292,2.947456 2.1699,-0.35213 3.89201,-0.13256 4.31386,0.55 0.38996,0.63096 1.7884,0.86348 3.14515,0.52297 2.87892,-0.72257 2.399,-2.27525 6.53778,21.15179 1.64953,9.33695 2.74576,17.94526 2.43605,19.12957 -0.3097,1.18431 -0.0882,2.72552 0.49223,3.4249 1.34771,1.62389 7.53553,35.63648 7.46733,41.04564 -0.0283,2.2439 0.55675,5.45675 1.3001,7.13967 0.74335,1.68294 2.42205,9.60326 3.73044,17.60074 2.12928,13.01513 2.57237,14.47947 4.22279,13.95564 1.01414,-0.32187 1.8439,-0.12724 1.8439,0.43252 0,0.55976 -0.94782,1.16441 -2.10627,1.34368 -1.60689,0.24864 0.2068,1.96687 7.64966,7.24698 8.34304,5.91871 9.75593,7.33318 9.75593,9.76676 0,3.61661 -3.4682,6.82934 -8.30157,7.69008 -3.66627,0.65289 -3.7016,0.70614 -2.8815,4.34237 0.50324,2.23129 0.42307,4.33339 -0.20352,5.33673 -0.74105,1.18661 0.16601,8.43568 3.20311,25.59896 2.33031,13.16896 4.34441,24.05105 4.47579,24.18243 0.25734,0.25734 28.50328,-4.76854 28.87198,-5.1373 0.122,-0.12203 -0.1864,-2.03202 -0.6854,-4.24442 -0.4989,-2.2124 -0.7999,-4.1298 -0.6689,-4.26087 0.1311,-0.13108 12.2286,-2.24383 26.8834,-4.695 l 26.6451,-4.45668 0.6685,4.45805 c 0.5289,3.52678 1.0268,4.35672 2.3839,3.97299 0.9435,-0.26679 16.2881,-3.13947 34.099,-6.38373 18.1539,-3.30673 32.3597,-6.36338 32.3294,-6.95627 -0.03,-0.5817 -4.0719,-24.23609 -8.9823,-52.56532 l -8.928,-51.5077 3.1174,-0.85663 c 1.7147,-0.47115 3.2285,-0.96451 3.364,-1.09634 0.2167,-0.21086 -4.043,-23.89087 -5.3776,-29.89481 -0.2775,-1.24802 -1.7608,-2.95081 -3.2964,-3.78399 -3.6966,-2.00575 -1.0054,-2.04368 2.8685,-0.0404 1.655,0.85587 3.0073,1.20011 3.0051,0.76496 0,-0.43513 -0.7054,-5.11531 -1.5625,-10.4004 -1.5975,-9.85004 -1.3168,-11.23832 2.2813,-11.2842 0.6737,-0.009 3.5145,-0.50669 6.3132,-1.10687 4.034,-0.86515 5.154,-1.55202 5.4049,-3.31486 0.1742,-1.22298 6.7298,34.6579 14.568,79.73527 l 14.2514,81.95886 4.2978,-0.58908 c 4.0896,-0.56055 4.3132,-0.45464 4.6178,2.18738 0.3301,2.86455 0.5557,2.95084 4.9959,1.91019 2.5631,-0.6007 2.6832,-0.39873 4.3349,7.2872 0.9342,4.34776 1.6987,8.42005 1.6987,9.04953 0,0.62948 -1.7212,1.39057 -3.8249,1.69131 -4.6667,0.66718 -32.5127,5.59992 -35.6924,6.32272 -1.2589,0.28615 -2.1769,1.06011 -2.0399,1.7199 0.164,0.79004 -5.6711,2.26589 -17.0902,4.32259 l -17.3392,3.12297 v 3.85474 c 0,2.12012 -0.5367,4.18713 -1.1926,4.59336 -0.8995,0.55713 -0.8151,2.57322 0.3438,8.20525 0.8449,4.10665 1.2599,7.7429 0.9223,8.08056 -0.3377,0.33765 -26.6541,5.0941 -58.4811,10.56988 -31.8271,5.47579 -59.09009,10.19239 -60.58466,10.48134 -2.28592,0.44195 -6.45624,-2.23174 -26.26364,-16.83824 z" style="display:inline;opacity:1;fill:#cccccc;stroke-width:1.01995432"/></g></g></svg>
