<?xml version='1.0' encoding='UTF-8'?>
<!-- Created with Inkscape (http://www.inkscape.org/) and export_objects.py -->
<svg xmlns:cc="http://creativecommons.org/ns#" xmlns:dc="http://purl.org/dc/elements/1.1/" xmlns:inkscape="http://www.inkscape.org/namespaces/inkscape" xmlns:rdf="http://www.w3.org/1999/02/22-rdf-syntax-ns#" xmlns:sodipodi="http://sodipodi.sourceforge.net/DTD/sodipodi-0.dtd" xmlns:xlink="http://www.w3.org/1999/xlink" xmlns="http://www.w3.org/2000/svg" version="1.1" id="Layer_1" x="0px" y="0px" viewBox="0 0 267.96229 143.34516" style="enable-background:new 0 0 1920 1080;" xml:space="preserve" sodipodi:docname="SVG-006.svg" inkscape:version="0.92.3 (2405546, 2018-03-11)" width="267.96229px" height="143.34516px"><sodipodi:namedview pagecolor="#ffffff" bordercolor="#666666" borderopacity="1" objecttolerance="10" gridtolerance="10" guidetolerance="10" inkscape:pageopacity="0" inkscape:pageshadow="2" inkscape:window-width="2400" inkscape:window-height="1271" id="namedview7298" showgrid="false" inkscape:zoom="0.99878833" inkscape:cx="1067.4179" inkscape:cy="522.25773" inkscape:window-x="2391" inkscape:window-y="-9" inkscape:window-maximized="1" inkscape:current-layer="layer15"/>
<metadata id="metadata7302"><rdf:RDF><cc:Work rdf:about=""><dc:format>image/svg+xml</dc:format><dc:type rdf:resource="http://purl.org/dc/dcmitype/StillImage"/><dc:title/></cc:Work></rdf:RDF></metadata><g inkscape:groupmode="layer" inkscape:label="SVG-" transform="matrix(1.000000,0.000000,0.000000,1.000000,-638.197700,-449.226570)"><g id="g880" inkscape:label="006"><path inkscape:connector-curvature="0" id="path3781-6" d="m 896.65174,582.29754 1.62272,4.23709 -30.02065,5.40913 -0.45076,-2.2538 -11.80992,2.2538 -0.9015,-4.5977 -11.99023,2.16365 -14.15387,-81.40733 -22.89863,3.69623 -1.71289,-8.56445 -13.70312,2.0735 1.44244,8.92506 -55.89429,9.91674 -1.80304,-9.37583 -15.59631,2.61441 1.53259,9.46597 -19.83346,3.15533 -1.80305,-9.19551 -15.50615,2.7947 1.53259,9.46597 -20.10392,3.15532 -1.62274,-9.0152 -15.416,2.79472 1.44243,9.10536 -7.39247,1.26212 -2.79472,-16.31752 13.16221,-2.43411 -1.35229,-9.0152 19.83346,-3.33563 1.62275,9.10536 14.78493,-2.16366 -1.08182,-5.40911 0.90152,-0.54092 -0.36061,-3.42578 20.19407,-3.24548 1.35228,8.65461 16.04707,-2.52427 -1.87362,-9.18492 20.01661,-3.47421 1.59367,8.95646 15.55431,-2.54988 -1.52993,-9.14771 20.08035,-3.41047 1.59368,9.08396 15.61805,-2.61363 -1.56181,-9.21147 22.439,-3.98419 -0.44623,-2.00803 4.58979,-0.89246 0.47811,2.07178 4.23918,-0.60561 1.72117,9.21147 12.71756,-2.2949 0.0956,0.86059 7.33093,-1.27494 -1.81681,-10.58203 0.7331,-0.25499 -1.88054,-9.78518 1.59367,-2.26303 0.86059,-0.1275 5.86474,4.46231 15.29932,-20.7497 31.96919,21.19593 -7.36279,12.52632 8.82898,49.0853 -0.79685,0.22311 1.72118,9.30708 -9.81706,1.88054 0.47811,2.93237 1.17932,7.3628 3.44234,-0.44623 0.76496,3.66546 7.04407,-1.24307 0.82871,3.50609 -7.10781,1.52994 2.9005,17.46671 -4.90853,0.95621 z" style="display:inline;fill:none;stroke:#000000;stroke-width:1.07458043px;stroke-linecap:butt;stroke-linejoin:miter;stroke-opacity:1"/><path inkscape:connector-curvature="0" id="path4240-7" d="m 856.30318,588.39257 c 0,-1.98575 -0.37217,-2.09991 -4.7202,-1.44788 -2.5961,0.38931 -5.33076,0.94213 -6.07701,1.22851 -1.68982,0.64843 -1.11175,3.36348 -9.01954,-42.36202 -3.62466,-20.95908 -6.76023,-38.27734 -6.96791,-38.48501 -0.33701,-0.33702 -15.19958,1.92527 -20.78378,3.16358 -1.91095,0.42376 -2.26689,-0.0926 -2.87945,-4.17748 -0.49979,-3.33282 -1.09405,-4.50941 -2.08546,-4.12898 -0.76256,0.29263 -4.20734,0.8512 -7.65504,1.24126 l -6.26856,0.7092 0.33495,4.70034 0.33495,4.70034 -9.68957,1.69965 c -5.32926,0.93481 -17.3822,3.05316 -26.7843,4.70745 l -17.09472,3.00777 -0.63347,-3.96142 c -0.3484,-2.17878 -1.02775,-4.20511 -1.50968,-4.50295 -0.48192,-0.29786 -4.52197,0.0165 -8.97788,0.69868 l -8.10167,1.24022 0.56809,4.79656 c 0.63794,5.3865 1.45962,4.89937 -11.27084,6.68195 -5.36281,0.75092 -6.72676,-0.12843 -6.7563,-4.35585 -0.009,-1.22909 -0.48265,-2.52334 -1.05346,-2.87612 -1.16498,-0.72 -16.14295,1.47941 -16.74862,2.45943 -0.21387,0.34602 -0.0431,2.52015 0.37959,4.83137 l 0.76844,4.20224 -8.98012,1.47325 c -9.79157,1.60638 -10.07986,1.49509 -10.07986,-3.89108 0,-1.37416 -0.57372,-2.71539 -1.27493,-2.98051 -1.19968,-0.45357 -15.77763,1.95525 -16.54937,2.73458 -0.19682,0.19875 -0.008,2.2701 0.4196,4.603 0.74659,4.07321 0.66678,4.25788 -2.0098,4.65073 -2.70348,0.39678 -2.82014,0.21057 -3.88165,-6.19544 -0.60193,-3.63248 -0.88428,-6.9445 -0.62746,-7.36004 0.25681,-0.41554 2.66854,-1.05833 5.35936,-1.42842 6.85527,-0.94283 7.29169,-1.37042 6.39633,-6.2668 l -0.76635,-4.19083 8.62564,-1.28329 c 9.58683,-1.42628 10.3833,-1.08595 10.41274,4.44945 l 0.0156,2.93628 5.35477,-0.67695 c 11.66245,-1.47439 12.19465,-1.66941 11.55121,-4.23308 -0.32452,-1.29299 -0.17563,-3.44085 0.33086,-4.77303 0.7933,-2.08655 2.00794,-2.59114 8.76663,-3.64189 4.31515,-0.67086 8.2618,-0.9626 8.77033,-0.64831 0.50854,0.31429 0.92461,1.89421 0.92461,3.51091 0,1.61672 0.45459,3.22043 1.0102,3.56382 0.55561,0.34338 4.71791,0.0567 9.24956,-0.63697 l 8.23935,-1.2613 -0.64884,-4.71762 -0.64884,-4.71764 8.15014,-1.32356 c 4.48258,-0.72795 8.64439,-1.01809 9.24849,-0.64474 0.60408,0.37334 1.09834,2.00158 1.09834,3.61829 0,1.61671 0.42002,3.19906 0.93337,3.51633 0.77251,0.47743 16.34907,-1.29425 17.17162,-1.95311 0.14069,-0.11269 -0.13245,-2.28311 -0.60699,-4.82314 l -0.86279,-4.61826 8.45237,-1.25751 c 4.64881,-0.69163 8.93803,-0.95735 9.5316,-0.5905 0.59357,0.36684 1.07922,1.98976 1.07922,3.60646 0,1.61671 0.4546,3.22042 1.0102,3.56382 0.55561,0.34338 4.69159,0.0608 9.19108,-0.62802 l 8.18087,-1.25235 -0.63166,-4.76172 -0.63166,-4.76174 10.81971,-1.85456 c 7.43321,-1.27409 10.81973,-2.28183 10.81973,-3.21967 0,-0.75082 0.68846,-1.36512 1.52993,-1.36512 0.84146,0 1.52993,0.45898 1.52993,1.01995 0,0.56098 0.93236,1.01996 2.07192,1.01996 2.12096,0 2.38734,0.4159 3.49938,5.46357 0.6116,2.77606 0.84443,2.8841 4.92997,2.28757 2.35843,-0.34436 7.00083,-0.84943 10.31642,-1.12238 3.3156,-0.27297 6.22987,-0.6978 6.47617,-0.9441 0.24628,-0.24628 -0.0625,-5.13919 -0.68635,-10.87312 -0.62378,-5.73393 -0.89329,-10.66621 -0.59888,-10.9606 0.2944,-0.2944 1.87022,0.4517 3.50183,1.65799 l 2.96657,2.19328 7.47542,-10.1387 c 4.11148,-5.57627 7.93441,-9.9813 8.49538,-9.78896 0.56098,0.19235 7.51237,4.58615 15.44755,9.764 l 14.42757,9.41429 -3.56681,5.98763 -3.56681,5.98763 4.09148,23.22993 c 2.25031,12.77647 4.36569,25.86312 4.70088,29.08145 l 0.60941,5.8515 -4.17457,0.66754 c -2.29601,0.36715 -4.38706,1.22129 -4.64678,1.8981 -0.25971,0.6768 -0.085,3.48048 0.38837,6.23038 0.6402,3.71952 1.27431,4.93033 2.47626,4.72842 0.89687,-0.15064 1.8495,0.62272 2.14123,1.73829 0.4451,1.70203 1.11276,1.91436 4.36165,1.38714 2.76639,-0.44892 3.63289,-0.2937 3.10735,0.55664 -0.40081,0.64852 -1.82202,1.17913 -3.15824,1.17913 -3.27407,0 -3.54535,0.72494 -2.48716,6.6463 2.19708,12.29444 2.22889,11.42855 -0.44449,12.09954 -2.02022,0.50704 -2.44281,1.21868 -2.31924,3.90557 l 0.15112,3.28555 -13.15619,2.40044 c -9.38115,1.71166 -13.35704,2.07549 -13.85612,1.26794 -0.50051,-0.80982 -1.983,-0.83675 -5.20299,-0.0946 -6.35866,1.46569 -7.05294,1.36057 -7.05294,-1.06788 z" style="display:inline;fill:#cccccc;stroke-width:1.01995432"/></g></g></svg>
