<?xml version='1.0' encoding='UTF-8'?>
<!-- Created with Inkscape (http://www.inkscape.org/) and export_objects.py -->
<svg xmlns:cc="http://creativecommons.org/ns#" xmlns:dc="http://purl.org/dc/elements/1.1/" xmlns:inkscape="http://www.inkscape.org/namespaces/inkscape" xmlns:rdf="http://www.w3.org/1999/02/22-rdf-syntax-ns#" xmlns:sodipodi="http://sodipodi.sourceforge.net/DTD/sodipodi-0.dtd" xmlns:xlink="http://www.w3.org/1999/xlink" xmlns="http://www.w3.org/2000/svg" version="1.1" id="Layer_1" x="0px" y="0px" viewBox="0 0 44.221073 52.545122" style="enable-background:new 0 0 1920 1080;" xml:space="preserve" sodipodi:docname="SVG-010.svg" inkscape:version="0.92.3 (2405546, 2018-03-11)" width="44.221073px" height="52.545122px"><sodipodi:namedview pagecolor="#ffffff" bordercolor="#666666" borderopacity="1" objecttolerance="10" gridtolerance="10" guidetolerance="10" inkscape:pageopacity="0" inkscape:pageshadow="2" inkscape:window-width="2400" inkscape:window-height="1271" id="namedview7298" showgrid="false" inkscape:zoom="0.99878833" inkscape:cx="1067.4179" inkscape:cy="522.25773" inkscape:window-x="2391" inkscape:window-y="-9" inkscape:window-maximized="1" inkscape:current-layer="layer15"/>
<metadata id="metadata7302"><rdf:RDF><cc:Work rdf:about=""><dc:format>image/svg+xml</dc:format><dc:type rdf:resource="http://purl.org/dc/dcmitype/StillImage"/><dc:title/></cc:Work></rdf:RDF></metadata><g inkscape:groupmode="layer" inkscape:label="SVG-" transform="matrix(1.000000,0.000000,0.000000,1.000000,-1179.152000,-946.304770)"><g id="g893" inkscape:label="010"><path inkscape:connector-curvature="0" id="path4254" d="m 1193.714,982.56883 c 0.3718,-8.55484 0.9479,-17.96387 1.28,-20.90908 l 0.6039,-5.35472 h -6.687 c -3.6779,0 -6.9707,-0.45898 -7.3174,-1.01996 -0.3468,-0.56097 -0.095,-1.01995 0.5603,-1.01995 0.7755,0 0.9567,-0.93236 0.5197,-2.67372 l -0.6711,-2.67371 5.4053,0.60511 c 2.9729,0.33281 12.0605,0.90298 20.1946,1.26704 l 14.7894,0.66193 -0.6737,11.86122 c -0.3705,6.52367 -0.7148,11.93247 -0.765,12.01951 -0.051,0.087 -2.7729,-0.0849 -6.0506,-0.38212 l -5.9593,-0.54041 -0.6704,7.93073 c -0.3687,4.36183 -0.6704,9.69733 -0.6704,11.85659 v 3.92588 h -7.2822 -7.2822 z" style="display:inline;fill:#008080;stroke-width:1.01995432"/><path inkscape:connector-curvature="0" id="path3771-5" d="m 1207.5726,998.28328 -16.415,-0.92435 2.2312,-41.21251 -13.6738,-0.79684 0.1594,-3.21923 1.0837,-0.0637 0.1594,-1.8168 -1.0837,-0.0956 0.1912,-3.28298 42.5831,2.39051 -1.3705,25.75387 -12.4945,-0.60563 z" style="display:inline;fill:none;stroke:#000000;stroke-width:1.07458043px;stroke-linecap:butt;stroke-linejoin:miter;stroke-opacity:1"/><path inkscape:connector-curvature="0" id="path4254-0" d="m 1193.0198,981.19616 c 0.3719,-8.55484 0.9478,-17.96398 1.28,-20.90908 l 0.6039,-5.35473 h -6.687 c -3.6779,0 -6.9707,-0.45898 -7.3174,-1.01996 -0.3467,-0.56097 -0.095,-1.01995 0.5603,-1.01995 0.7755,0 0.9567,-0.93236 0.5197,-2.67372 l -0.6711,-2.67371 5.4054,0.60511 c 2.9728,0.33281 12.0604,0.90298 20.1946,1.26704 l 14.7893,0.66193 -0.6737,11.86123 c -0.3705,6.52367 -0.7148,11.93247 -0.7649,12.01951 -0.051,0.087 -2.7731,-0.0849 -6.0507,-0.38212 l -5.9593,-0.54041 -0.6704,7.93073 c -0.3687,4.36183 -0.6703,9.69723 -0.6703,11.85649 v 3.92598 h -7.2823 -7.2822 z" style="display:inline;fill:#008080;stroke-width:1.01995432"/></g></g></svg>
